<svg xmlns="http://www.w3.org/2000/svg" width="120px" fill="#337CEF" viewBox="0 0 465.35205 50.65601" class="logo"><title>Carlease</title>
<path class="svg-icon" d="M465.35205,39.762l-1.113,9.542H438.156q-8.508,0-12.805-4.294-4.212-4.29447-4.213-12.962V1.352h42.465l1.113,9.542H433.22406a.81512.81512,0,0,0-.794.796v8.429a.81337.81337,0,0,0,.794.794h28.788v8.431h-28.788a.76375.76375,0,0,0-.556.239.75459.75459,0,0,0-.238.557v2.385a7.44457,7.44457,0,0,0,1.829,5.248q1.74747,1.98752,5.406,1.989ZM398.916,23.539l.07995.08a39.52753,39.52753,0,0,0-8.42993-2.307h-.08q-4.45349-.87452-8.349-1.512h-.08a29.59,29.59,0,0,1-6.758-1.908q-2.946-1.35306-3.023-3.897v-.08q-.15894-4.76853,9.065-4.77A116.5317,116.5317,0,0,1,403.76605,11.371l-1.033-9.066A67.962,67.962,0,0,0,393.587.556,90.69908,90.69908,0,0,0,383.567,0q-11.05344,0-16.62,4.054v.08a11.86336,11.86336,0,0,0-5.486,10.49695,11.86918,11.86918,0,0,0,2.465,7.634,13.25068,13.25068,0,0,0,5.963,4.297q1.911.71549,3.898,1.43,2.067.55656,4.374,1.113l-.08-.08q4.45359.71548,8.429,1.354a33.83787,33.83787,0,0,1,6.599,1.66894q3.024,1.269,2.945,3.578.078,3.09906-3.182,4.533-2.9415,1.3515-10.021,1.351a51.64851,51.64851,0,0,1-19.88-3.499l-3.02295,8.351a49.80043,49.80043,0,0,0,10.18,3.181,70.906,70.906,0,0,0,12.962,1.113q12.246,0,18.45-4.056a13.19836,13.19836,0,0,0,5.963-11.611,10.24059,10.24059,0,0,0-2.385-7.157A16.616,16.616,0,0,0,398.916,23.539ZM317.015,1.352,293.794,49.304h12.089l15.505-35.546a.51457.51457,0,0,1,.397-.399.67964.67964,0,0,1,.638,0,.51046.51046,0,0,1,.397.399l15.506,35.546h12.566L327.751,1.352ZM252.02,37.773a7.44541,7.44541,0,0,1-1.83-5.248V30.14a.817.817,0,0,1,.795-.796h28.868V20.913H250.985a.75547.75547,0,0,1-.556-.238.76433.76433,0,0,1-.239-.556V11.69a.817.817,0,0,1,.795-.796h31.492l-1.035-9.542H238.898V32.048q0,8.66859,4.216,12.962,4.293,4.293,12.881,4.294h26.004l1.114-9.542H257.428A6.98434,6.98434,0,0,1,252.02,37.773Zm-55.091,1.751a.77414.77414,0,0,1-.238-.558V1.352H185.317V49.304h41.275V39.762H197.487A.76442.76442,0,0,1,196.929,39.524Zm-37.27-4.933a.53881.53881,0,0,1,.158-.397.47981.47981,0,0,1,.319-.317,15.63531,15.63531,0,0,0,6.6-5.727,18.34536,18.34536,0,0,0,2.226-9.38305q-.159-8.50947-5.486-12.884-5.72552-4.449-16.065-4.531H121.09V49.304h11.452V11.452a.81506.81506,0,0,1,.794-.797h13.837q5.01143,0,7.794,1.988a7.68874,7.68874,0,0,1,2.941,6.124v.08q-.156,4.37256-2.862,6.52106h-.079q-2.78256,2.148-7.794,2.147h-3.976l12.565,21.789h13.28l-9.225-14.235A.85628.85628,0,0,1,159.659,34.591ZM77.012,1.352,53.793,49.304H65.96L81.465,13.758a.51536.51536,0,0,1,.4-.399.67366.67366,0,0,1,.635,0,.51168.51168,0,0,1,.398.399L98.325,49.304h12.564L87.748,1.352ZM35.784,40.478h.081a41.09371,41.09371,0,0,1-9.147,1.032q-7.233-.15747-11.211-4.452-3.978-4.37392-4.136-11.68994,0-7.39508,3.976-11.69006v-.08Q19.32358,9.305,26.561,9.303a68.7599,68.7599,0,0,1,9.223.636q4.05606.63747,8.271,1.671l-.953-9.464A55.3733,55.3733,0,0,0,35.07.556,69.25767,69.25767,0,0,0,26.32306,0a35.07124,35.07124,0,0,0-11.135,1.669h.08A21.23792,21.23792,0,0,0,6.918,6.76a23.24508,23.24508,0,0,0-5.249,8.11A31.13724,31.13724,0,0,0,0,25.368Q0,37.05749,6.918,43.896a24.65384,24.65384,0,0,0,8.429,5.17h-.079a37.28611,37.28611,0,0,0,11.293,1.59,49.16122,49.16122,0,0,0,10.655-1.113,45.49554,45.49554,0,0,0,9.145-3.42L43.579,38.09A39.07319,39.07319,0,0,1,35.784,40.478Z"></path>
</svg>
