<svg xmlns="http://www.w3.org/2000/svg" fill="#337CEF" viewBox="0 0 30 30">
    <path d="M 8 4 C 6.895 4 6 4.895 6 6 L 6 18 L 5 18 A 1 1 0 0 0 4 19 A 1 1 0 0 0 4.4199219 19.814453 L 4.421875 19.816406 A 1 1 0 0 0 4.4394531 19.828125 L 13.824219 26.617188 L 13.826172 26.615234 A 2 2 0 0 0 15 27 A 2 2 0 0 0 16.175781 26.615234 L 16.175781 26.617188 L 16.244141 26.566406 L 25.541016 19.841797 A 1 1 0 0 0 25.580078 19.814453 L 25.580078 19.8125 A 1 1 0 0 0 26 19 A 1 1 0 0 0 25 18 L 24 18 L 24 6 C 24 4.895 23.105 4 22 4 L 8 4 z M 14 7.5 L 16 7.5 L 16 9.1152344 C 17.35 9.4172344 18.252875 10.337078 18.296875 11.580078 L 16.611328 11.580078 C 16.528328 10.904078 15.899203 10.453125 15.033203 10.453125 C 14.137203 10.453125 13.544922 10.868484 13.544922 11.521484 C 13.544922 12.049484 13.952078 12.353406 14.955078 12.566406 L 15.988281 12.785156 C 17.709281 13.147156 18.449219 13.89075 18.449219 15.21875 C 18.449219 16.64875 17.532 17.607437 16 17.898438 L 16 19.5 L 14 19.5 L 14 17.902344 C 12.529 17.626344 11.604781 16.723344 11.550781 15.402344 L 13.28125 15.402344 C 13.36425 16.096344 14.065219 16.541016 15.074219 16.541016 C 16.005219 16.541016 16.664063 16.090359 16.664062 15.443359 C 16.664062 14.897359 16.2375 14.583422 15.1875 14.357422 L 14.072266 14.119141 C 12.512266 13.793141 11.746094 12.980781 11.746094 11.675781 C 11.746094 10.362781 12.615 9.4271406 14 9.1191406 L 14 7.5 z"></path>
</svg>
